<?xml version="1.0" standalone="no"?>
<!DOCTYPE svg PUBLIC "-//W3C//DTD SVG 20010904//EN"
 "http://www.w3.org/TR/2001/REC-SVG-20010904/DTD/svg10.dtd">
<svg version="1.0" xmlns="http://www.w3.org/2000/svg"
 width="738.000000pt" height="738.000000pt" viewBox="0 0 738.000000 738.000000"
 preserveAspectRatio="xMidYMid meet">
<metadata>
Created by potrace 1.14, written by Peter Selinger 2001-2017
</metadata>
<g transform="translate(0.000000,738.000000) scale(0.100000,-0.100000)"
fill="#000000" stroke="none">
<path d="M3567 7084 c-1 -1 -51 -5 -112 -8 -60 -4 -121 -9 -135 -10 -14 -2
-50 -7 -80 -11 -136 -17 -188 -25 -255 -42 -33 -8 -69 -16 -80 -17 -11 -2 -20
-4 -20 -6 0 -1 -11 -3 -25 -5 -37 -3 -153 -37 -167 -47 -7 -6 -17 -7 -22 -4
-5 4 -12 2 -15 -3 -3 -4 -20 -12 -38 -16 -18 -4 -37 -9 -43 -10 -5 -1 -62 -23
-127 -49 -64 -25 -121 -46 -126 -46 -5 0 -15 -7 -22 -15 -7 -9 -15 -14 -17
-11 -3 2 -36 -11 -73 -30 -38 -19 -74 -34 -79 -34 -5 0 -11 -5 -13 -11 -2 -5
-10 -11 -18 -12 -8 -1 -53 -25 -100 -52 -47 -27 -95 -55 -108 -62 -26 -14
-257 -171 -287 -195 -242 -194 -442 -385 -560 -534 -16 -21 -35 -42 -40 -48
-41 -42 -227 -306 -269 -381 -9 -16 -26 -46 -38 -65 -31 -53 -133 -250 -148
-290 -8 -19 -17 -37 -21 -40 -4 -3 -10 -17 -13 -30 -2 -14 -14 -44 -25 -67
-12 -23 -21 -48 -21 -55 0 -8 -6 -22 -14 -33 -7 -11 -14 -23 -14 -28 -1 -4
-17 -58 -36 -120 -50 -160 -83 -292 -102 -402 -4 -22 -8 -49 -11 -60 -5 -25
-10 -64 -18 -134 -3 -30 -8 -58 -10 -61 -7 -11 -19 -274 -19 -405 1 -153 14
-350 29 -444 2 -13 7 -45 11 -70 3 -25 8 -57 10 -71 2 -14 7 -41 10 -60 3 -19
10 -49 15 -66 5 -18 9 -36 8 -40 -2 -5 3 -29 10 -54 7 -25 15 -53 17 -64 2
-10 11 -44 20 -75 9 -31 17 -60 19 -66 1 -5 5 -17 8 -25 3 -8 11 -33 17 -55 6
-22 15 -49 20 -60 4 -11 27 -69 51 -130 41 -107 129 -293 191 -405 32 -56 197
-311 208 -320 3 -3 28 -34 55 -70 27 -36 54 -70 60 -76 5 -7 35 -41 65 -75 88
-103 297 -308 405 -398 134 -112 134 -111 190 -150 28 -19 52 -37 55 -41 7 -7
123 -84 135 -89 6 -2 29 -17 52 -33 60 -41 310 -168 423 -216 77 -33 323 -122
333 -121 1 0 9 -2 17 -5 44 -14 89 -27 106 -30 10 -2 45 -11 76 -19 l57 -15
-4 182 c-3 99 -7 219 -9 266 -2 47 -7 155 -11 240 -11 269 -22 301 -156 428
-302 290 -450 448 -576 617 -345 465 -473 609 -678 764 -22 17 -44 34 -50 39
-5 4 -46 34 -90 67 -44 33 -106 85 -137 116 -50 48 -58 61 -58 92 0 60 83 138
188 176 39 15 73 18 144 16 107 -4 194 -27 308 -85 74 -37 240 -143 270 -171
8 -8 40 -31 70 -51 31 -21 65 -45 75 -55 44 -39 233 -160 285 -183 63 -27 193
-37 238 -17 49 21 76 69 87 152 2 11 6 34 10 50 3 17 9 53 13 80 8 64 8 1179
-1 1305 -4 52 -9 129 -12 170 -3 41 -8 109 -10 150 -3 41 -8 113 -10 160 -3
47 -7 114 -9 150 -16 248 -20 406 -11 453 8 43 37 109 56 132 10 11 26 29 36
41 44 51 168 104 244 104 32 0 77 -36 80 -64 1 -6 3 -20 4 -31 2 -11 6 -42 9
-70 4 -27 8 -66 11 -85 5 -39 16 -131 20 -170 2 -22 7 -61 31 -235 3 -27 8
-59 9 -70 2 -11 6 -42 9 -70 3 -27 8 -63 11 -80 7 -42 15 -103 20 -150 3 -22
7 -51 10 -65 2 -14 7 -50 10 -80 3 -30 8 -66 11 -80 8 -42 22 -146 28 -205 5
-47 14 -112 20 -140 7 -33 20 -159 20 -180 -2 -60 -18 -96 -60 -134 -23 -23
-48 -50 -54 -62 -10 -18 -9 -20 7 -15 23 7 132 36 154 41 8 2 40 11 70 20 59
18 97 27 117 28 23 1 12 12 -35 37 -59 31 -93 67 -94 100 0 14 -2 32 -4 40 -3
16 -11 69 -20 140 -3 25 -8 52 -10 60 -2 8 -6 42 -10 75 -3 33 -8 71 -10 85
-7 40 -15 101 -21 150 -11 94 -16 129 -29 215 -3 17 -7 53 -10 80 -3 28 -7 64
-10 80 -2 17 -7 46 -9 65 -3 19 -8 58 -11 85 -3 28 -8 64 -11 80 -2 17 -7 48
-10 70 -2 22 -6 54 -8 70 -2 17 -7 57 -11 90 -3 33 -8 71 -10 85 -2 14 -7 44
-10 68 -3 23 -8 61 -11 85 -7 54 -13 107 -20 182 -5 52 -3 65 18 95 13 19 44
48 68 65 42 28 51 30 135 30 107 0 154 -19 191 -76 24 -38 28 -54 39 -138 4
-25 9 -62 11 -81 3 -19 7 -50 9 -69 3 -19 6 -48 9 -65 3 -17 8 -53 11 -81 3
-27 8 -60 10 -71 3 -12 7 -49 10 -83 4 -33 8 -71 11 -83 3 -13 7 -43 9 -68 3
-25 7 -61 10 -80 3 -19 7 -46 10 -60 2 -14 6 -45 9 -70 3 -25 8 -56 11 -70 3
-14 7 -47 10 -75 3 -27 7 -59 9 -70 2 -11 7 -42 10 -70 4 -27 9 -63 12 -80 5
-29 10 -67 18 -150 3 -23 7 -54 10 -70 3 -17 13 -82 21 -145 9 -63 18 -126 20
-140 3 -14 7 -43 10 -65 12 -82 19 -101 54 -133 28 -26 65 -23 88 6 16 22 53
98 68 142 4 10 36 86 50 115 8 17 27 64 44 106 17 42 36 90 42 105 7 16 13 31
14 34 6 18 18 49 28 70 6 14 11 27 12 30 1 3 5 13 9 22 4 9 9 22 10 30 2 7 8
24 13 38 6 14 29 77 52 140 23 63 45 122 48 130 3 8 7 20 9 25 1 6 13 39 27
75 13 36 39 108 57 160 18 52 37 106 43 120 6 14 11 30 13 35 12 45 94 266
106 290 46 88 154 118 258 73 51 -23 117 -84 142 -132 18 -34 22 -59 22 -141
1 -55 -5 -122 -13 -150 -17 -64 -50 -164 -61 -190 -5 -11 -30 -74 -56 -140
-38 -98 -270 -689 -299 -760 -5 -11 -9 -22 -10 -25 -1 -3 -7 -18 -14 -35 -6
-16 -16 -43 -22 -60 -16 -43 -24 -62 -57 -137 -34 -75 -74 -108 -131 -108 -32
0 -31 -2 43 -50 42 -28 81 -50 85 -50 5 0 11 -3 13 -8 5 -13 108 -75 115 -69
3 3 -9 28 -26 54 -28 41 -32 55 -28 93 5 48 8 61 24 100 6 14 25 61 42 105 18
44 38 94 45 110 16 37 40 98 42 105 1 9 16 44 35 87 10 24 19 47 19 53 0 6 8
29 19 53 30 68 46 111 43 120 -1 4 2 7 8 7 5 0 10 6 10 13 0 12 135 357 165
424 8 17 15 36 15 41 0 15 40 56 67 70 32 17 100 5 138 -24 76 -58 83 -129 35
-349 -12 -55 -26 -120 -31 -144 -5 -23 -13 -59 -19 -80 -5 -20 -12 -54 -16
-76 -3 -22 -8 -43 -11 -48 -2 -4 -7 -20 -9 -35 -3 -15 -27 -126 -54 -247 -27
-121 -52 -233 -55 -250 -8 -38 -13 -60 -15 -60 -1 0 -3 -9 -5 -20 -8 -56 -17
-101 -22 -108 -2 -4 -6 -22 -9 -40 -2 -18 -6 -43 -9 -57 -13 -60 -33 -172 -40
-225 -20 -148 -24 -201 -30 -430 -4 -191 -11 -310 -21 -375 -3 -19 -7 -51 -9
-70 -5 -56 -34 -189 -57 -265 -12 -38 -23 -76 -24 -82 -6 -35 -117 -238 -156
-288 -39 -49 -124 -173 -157 -228 -35 -58 -45 -84 -67 -162 -11 -39 -19 -120
-18 -170 1 -33 5 -211 8 -395 3 -184 8 -344 10 -355 3 -20 16 -23 46 -13 8 3
72 24 141 46 69 23 143 49 165 59 21 9 41 17 44 18 14 4 66 27 142 64 47 23
90 41 97 41 6 0 11 4 11 9 0 5 12 14 28 20 64 25 408 240 432 271 3 3 21 17
40 30 19 13 37 27 40 30 3 3 30 25 60 50 107 87 316 289 413 400 224 254 409
547 567 895 25 56 100 252 105 275 2 8 11 38 21 65 18 52 25 79 50 180 17 70
26 113 27 138 1 9 4 17 7 17 4 0 7 6 7 13 0 6 6 46 13 87 7 41 14 86 15 100 2
14 6 48 9 75 15 130 19 204 19 385 0 181 -6 315 -18 400 -2 19 -7 58 -11 85
-8 66 -11 83 -19 130 -4 22 -8 47 -9 55 -1 8 -5 26 -9 40 -3 14 -9 42 -12 64
-3 21 -7 42 -10 46 -2 3 -6 20 -9 36 -3 17 -20 77 -37 134 -17 58 -31 111 -31
118 -1 6 -5 12 -10 12 -5 0 -7 4 -3 9 3 5 -1 25 -9 43 -9 18 -27 65 -41 103
-15 39 -34 84 -43 100 -9 17 -15 31 -13 33 2 2 -18 45 -43 97 -25 51 -46 98
-46 104 0 6 -3 11 -8 11 -4 0 -15 17 -25 38 -21 45 -78 145 -86 152 -8 6 -29
41 -38 60 -6 15 -74 115 -122 180 -38 52 -181 230 -216 269 -124 138 -314 315
-460 428 -68 54 -263 189 -300 209 -33 17 -68 39 -79 47 -25 19 -246 131 -346
175 -162 73 -431 164 -565 191 -22 5 -71 16 -110 24 -38 8 -86 18 -105 21 -19
3 -46 8 -60 10 -114 22 -329 38 -513 41 -81 0 -149 0 -150 -1z"/>
</g>
</svg>
