<?xml version="1.0" standalone="no"?>
<!DOCTYPE svg PUBLIC "-//W3C//DTD SVG 20010904//EN"
 "http://www.w3.org/TR/2001/REC-SVG-20010904/DTD/svg10.dtd">
<svg version="1.0" xmlns="http://www.w3.org/2000/svg"
 width="1276.000000pt" height="1276.000000pt" viewBox="0 0 1276.000000 1276.000000"
 preserveAspectRatio="xMidYMid meet">
<metadata>
Created by potrace 1.14, written by Peter Selinger 2001-2017
</metadata>
<g transform="translate(0.000000,1276.000000) scale(0.100000,-0.100000)"
fill="#000000" stroke="none">
<path d="M30 6380 l0 -6380 6350 0 6350 0 0 6380 0 6380 -6350 0 -6350 0 0
-6380z m6525 6177 c55 -21 111 -47 125 -58 27 -22 28 -22 -50 7 -19 7 -51 13
-70 14 -19 0 -49 4 -65 8 -45 13 -60 4 -31 -19 13 -10 28 -19 34 -19 9 0 47
-30 88 -70 12 -11 25 -20 30 -20 13 0 81 -80 98 -115 106 -218 193 -442 209
-535 3 -14 13 -43 22 -65 42 -99 76 -217 70 -245 -3 -15 -3 -44 0 -64 6 -32 9
-34 22 -20 9 9 17 38 19 72 4 81 31 312 37 318 2 2 7 -21 11 -51 5 -48 1 -122
-19 -337 -6 -74 15 -80 56 -16 39 61 122 152 194 212 l50 41 -62 -73 c-35 -40
-63 -77 -63 -81 0 -13 59 -22 95 -15 18 3 44 17 60 30 15 13 38 24 50 24 12 0
44 10 71 22 112 49 393 29 448 -33 15 -16 33 -29 41 -29 29 0 125 -76 125 -99
0 -6 5 -11 10 -11 6 0 14 -8 17 -17 4 -10 19 -36 35 -59 37 -55 45 -78 63
-186 31 -177 35 -272 22 -483 -13 -205 -32 -357 -58 -473 -11 -46 -17 -88 -14
-93 4 -5 2 -9 -2 -9 -5 0 -9 -8 -9 -17 -1 -10 -8 -61 -17 -113 -20 -116 -47
-301 -58 -395 -17 -147 -20 -161 -56 -310 -2 -11 -6 -40 -9 -65 -3 -40 -27
-175 -54 -313 -6 -26 -10 -64 -10 -83 0 -19 -6 -60 -14 -92 -8 -31 -20 -91
-26 -132 -7 -41 -18 -95 -25 -120 -7 -25 -16 -79 -19 -120 -4 -41 -9 -82 -11
-90 -5 -17 -31 -197 -40 -275 -3 -27 -10 -73 -16 -101 -5 -28 -9 -55 -8 -60 1
-5 0 -16 -4 -24 -3 -8 -13 -87 -22 -175 -9 -88 -23 -198 -31 -245 -8 -47 -17
-105 -20 -130 -2 -25 -7 -63 -10 -85 -22 -166 -25 -736 -5 -885 17 -127 18
-136 30 -173 5 -18 12 -50 16 -72 7 -43 66 -218 92 -275 32 -70 105 -190 116
-190 5 0 8 -3 4 -6 -19 -19 83 -106 183 -156 176 -87 176 -87 295 -90 125 -3
139 -1 306 46 76 22 130 42 145 57 13 12 27 20 30 16 8 -8 37 7 84 43 19 15
80 60 135 100 60 44 185 158 313 284 117 116 235 225 262 241 58 35 121 78
171 118 20 16 43 30 50 31 8 2 49 19 91 39 42 21 93 39 112 41 20 3 44 9 53
15 20 10 148 40 198 46 86 10 326 5 395 -9 74 -15 215 -60 235 -76 6 -4 23
-10 39 -14 17 -4 42 -16 57 -27 15 -10 31 -19 35 -19 5 0 17 -9 29 -20 40 -39
138 -120 146 -120 4 0 24 -24 45 -52 21 -29 48 -64 60 -78 12 -14 32 -54 45
-90 20 -60 25 -79 33 -135 2 -11 8 -19 12 -18 14 2 11 -126 -2 -135 -15 -10
-37 -53 -30 -59 12 -12 -39 -84 -64 -90 -14 -3 -34 -13 -45 -23 -32 -27 -176
-114 -227 -138 -27 -12 -67 -31 -91 -42 -24 -11 -46 -20 -50 -20 -4 0 -27 -15
-51 -34 -25 -19 -69 -42 -97 -51 -29 -10 -73 -31 -98 -46 -25 -16 -50 -29 -55
-29 -15 0 -122 -57 -173 -91 -23 -16 -46 -29 -51 -29 -5 0 -17 -9 -27 -20 -10
-11 -23 -20 -29 -20 -6 0 -31 -18 -55 -40 -25 -22 -50 -40 -57 -40 -14 0 -117
-69 -122 -82 -2 -4 -10 -8 -17 -8 -7 0 -15 -6 -18 -13 -3 -7 -37 -35 -75 -61
-39 -26 -87 -68 -107 -92 -20 -25 -54 -53 -74 -64 -21 -10 -50 -36 -66 -57
-34 -46 -51 -63 -87 -86 -16 -10 -28 -24 -28 -32 0 -8 -6 -15 -14 -15 -15 0
-76 -65 -76 -81 0 -5 -38 -49 -85 -96 -47 -47 -85 -94 -85 -104 0 -10 -4 -21
-10 -24 -5 -3 -10 -14 -10 -23 0 -10 -9 -23 -19 -29 -11 -7 -38 -38 -59 -70
-22 -32 -49 -69 -61 -82 -12 -13 -21 -30 -21 -38 0 -7 -3 -13 -8 -13 -8 0 -23
-26 -42 -72 -7 -16 -17 -28 -23 -28 -6 0 -8 -3 -4 -6 8 -9 -29 -83 -58 -114
-12 -14 -25 -37 -28 -51 -4 -14 -17 -31 -30 -38 -12 -7 -24 -21 -24 -33 -1
-11 -8 -28 -16 -37 -7 -9 -20 -32 -27 -51 -23 -60 -77 -164 -99 -190 -11 -14
-24 -29 -29 -35 -4 -5 -20 -35 -34 -65 -15 -30 -47 -76 -72 -102 -27 -29 -51
-67 -61 -98 -10 -29 -39 -81 -66 -116 -27 -36 -49 -67 -49 -69 0 -3 -18 -31
-40 -62 -22 -32 -40 -63 -40 -69 0 -7 -7 -14 -15 -17 -8 -4 -40 -45 -71 -92
-31 -47 -61 -85 -66 -85 -4 0 -7 -3 -6 -7 2 -11 -14 -46 -26 -59 -29 -31 -45
-54 -38 -54 4 -1 -5 -11 -19 -23 -15 -12 -38 -40 -53 -62 -14 -22 -36 -53 -48
-70 -80 -108 -98 -133 -98 -140 0 -5 -18 -26 -40 -46 -22 -21 -40 -42 -40 -48
0 -5 -15 -26 -34 -45 -18 -20 -31 -36 -29 -36 9 0 -54 -78 -102 -125 -28 -27
-105 -107 -172 -177 -66 -71 -128 -128 -136 -128 -9 0 -42 -25 -74 -55 -32
-30 -61 -55 -65 -55 -4 0 -39 -20 -77 -45 -39 -24 -94 -52 -122 -61 -29 -10
-61 -26 -71 -36 -10 -10 -21 -18 -25 -18 -4 0 -16 -8 -27 -18 -12 -10 -40 -24
-63 -31 -23 -6 -49 -18 -57 -27 -19 -19 -79 -44 -105 -44 -11 0 -40 -9 -63
-19 -108 -49 -139 -61 -153 -61 -8 0 -15 -5 -15 -12 0 -6 -3 -9 -6 -6 -3 3
-33 -3 -67 -13 -34 -10 -70 -16 -79 -13 -10 3 -18 0 -18 -6 0 -6 -4 -9 -9 -6
-5 4 -22 1 -38 -5 -40 -17 -55 -21 -81 -20 -15 1 -21 -3 -16 -11 5 -8 2 -9 -9
-5 -9 3 -19 2 -22 -3 -3 -5 -12 -7 -20 -3 -8 3 -15 0 -15 -7 0 -8 -9 -11 -25
-8 -14 3 -25 1 -25 -3 0 -5 -12 -9 -26 -9 -14 0 -32 -7 -40 -15 -17 -17 -49
-21 -39 -5 3 5 2 10 -4 10 -5 0 -13 -5 -16 -10 -4 -6 -10 -8 -13 -6 -4 2 -43
-4 -86 -14 -43 -11 -148 -24 -234 -30 -85 -6 -158 -13 -162 -15 -40 -25 -947
-15 -1070 11 -14 3 -35 6 -47 7 -13 1 -23 5 -23 10 0 4 -9 5 -20 2 -12 -4 -26
-2 -33 4 -7 5 -30 12 -52 15 -63 9 -114 23 -130 36 -8 6 -22 9 -32 6 -10 -3
-25 -1 -33 4 -12 8 -10 10 9 10 31 0 24 7 -14 13 -92 17 -271 47 -276 47 -3 0
-23 11 -43 25 -20 13 -36 23 -36 21 0 -8 -118 34 -175 62 -33 16 -87 38 -120
47 -70 21 -96 36 -150 85 -22 20 -60 45 -85 56 -24 10 -61 36 -83 56 -21 21
-46 38 -55 38 -9 0 -28 9 -42 20 -14 11 -30 20 -37 20 -7 0 -23 14 -35 31 -13
16 -38 39 -56 51 -18 11 -42 38 -53 59 -13 27 -35 48 -69 67 -46 25 -68 53
-61 77 1 5 0 7 -4 3 -10 -10 -77 69 -144 170 -34 50 -66 92 -71 92 -6 0 -10 9
-10 19 0 11 -4 21 -8 23 -4 1 -23 29 -41 62 -18 32 -41 68 -52 80 -23 24 -59
86 -79 136 -7 19 -26 63 -42 98 -15 34 -28 64 -28 67 0 2 -13 32 -29 67 -16
35 -30 68 -31 73 -1 6 -6 15 -10 21 -5 5 -14 44 -21 85 -6 40 -13 81 -17 89
-3 8 -6 17 -7 20 -1 3 -4 12 -7 20 -60 163 -78 216 -78 237 0 13 -4 32 -10 42
-9 17 -12 28 -30 121 -4 25 -18 88 -29 140 -12 52 -26 122 -32 154 -5 33 -13
64 -16 69 -3 6 -7 20 -9 31 -1 12 -12 84 -24 161 -12 77 -23 163 -24 190 -2
28 -8 68 -14 90 -6 22 -14 67 -18 100 -3 33 -8 67 -9 75 -2 8 -10 55 -20 105
-9 49 -14 101 -11 116 3 14 -1 37 -8 51 -16 30 -25 65 -32 123 -3 25 -12 85
-20 133 -8 48 -19 116 -24 152 -5 36 -13 77 -18 90 -5 14 -10 28 -10 33 0 4
-5 38 -11 75 -6 37 -13 83 -15 102 -2 19 -6 42 -9 50 -18 44 -50 186 -62 275
-3 22 -8 50 -11 63 -7 33 -22 201 -30 328 -3 60 -10 117 -15 127 -6 9 -7 17
-4 17 2 0 -2 17 -9 38 -8 20 -16 66 -19 102 -2 36 -12 92 -21 125 -29 102 -43
156 -66 255 -12 52 -30 113 -40 135 -10 22 -21 63 -25 90 -6 47 -12 72 -31
120 -4 11 -9 25 -9 30 -1 6 -7 23 -13 38 -7 16 -12 35 -12 43 0 20 -49 215
-58 228 -3 6 -7 19 -8 31 -4 31 -41 183 -59 245 -9 30 -27 97 -41 148 -13 52
-29 102 -34 112 -5 9 -11 30 -14 46 -21 123 -28 157 -41 214 -9 36 -20 84 -25
108 -5 23 -14 50 -19 60 -13 25 -27 141 -35 297 -6 102 19 322 42 375 31 73
133 169 232 217 47 23 107 45 135 48 28 3 67 8 88 11 21 3 44 1 50 -4 7 -6 57
-13 112 -17 55 -4 103 -9 107 -12 5 -2 8 1 8 7 0 6 4 9 9 6 5 -3 11 1 14 9 4
9 -18 36 -60 75 -68 62 -72 72 -16 42 86 -47 222 -167 310 -276 18 -22 36 -37
40 -33 6 7 -17 105 -91 382 -41 153 -38 165 8 35 79 -225 94 -265 103 -265 16
1 34 54 24 73 -5 10 -13 119 -16 243 -3 123 -10 238 -15 254 -5 17 -12 50 -15
75 -4 24 -10 51 -15 60 -9 17 -77 276 -95 365 -7 33 -18 74 -24 90 -7 17 -11
30 -10 30 3 0 -5 33 -36 155 -22 87 -36 319 -25 422 11 105 53 283 81 342 26
57 135 160 186 176 21 7 49 20 63 30 48 33 112 47 199 44 58 -2 89 -8 101 -19
9 -8 22 -15 29 -15 6 0 40 -13 74 -29 54 -25 154 -110 193 -162 155 -211 283
-486 334 -717 7 -29 18 -66 26 -81 7 -15 18 -56 23 -92 5 -35 21 -107 36 -159
15 -52 38 -138 51 -190 14 -52 29 -99 33 -105 5 -5 20 -61 35 -123 14 -63 36
-134 47 -160 12 -25 25 -71 29 -103 5 -31 13 -66 19 -77 10 -19 14 -36 27
-125 3 -26 10 -50 15 -53 5 -3 7 -9 4 -13 -2 -5 0 -23 6 -42 10 -35 14 -51 25
-104 3 -16 14 -58 26 -93 11 -34 28 -100 38 -145 19 -83 52 -209 62 -237 13
-32 38 -139 53 -228 10 -50 21 -95 26 -98 5 -3 9 -13 9 -23 0 -18 21 -82 59
-180 11 -30 23 -73 25 -96 3 -23 10 -54 16 -70 6 -16 20 -72 31 -124 12 -53
31 -130 44 -171 12 -41 30 -104 39 -140 9 -36 25 -96 35 -135 22 -84 93 -229
168 -345 64 -98 66 -99 156 -145 38 -19 82 -46 98 -59 16 -14 53 -32 83 -40
48 -14 58 -14 96 -1 23 8 49 15 58 15 8 0 47 15 86 34 39 18 79 36 88 39 9 3
25 19 34 34 10 15 30 42 45 58 80 86 99 113 108 150 6 22 22 85 36 140 14 55
29 134 34 175 4 42 15 89 24 106 10 20 19 85 27 199 15 232 31 369 51 448 10
38 29 157 50 307 13 99 18 125 29 185 5 28 12 81 15 119 3 38 10 76 14 85 10
19 21 100 22 161 0 25 7 86 14 135 8 50 17 131 20 180 9 119 13 154 25 190 5
17 12 84 15 150 4 66 13 146 21 177 8 31 13 61 12 65 -1 4 2 33 5 63 7 51 10
76 22 155 2 17 9 77 16 135 10 90 25 179 42 255 5 23 18 138 23 205 2 25 10
80 18 123 9 42 17 107 20 145 15 216 19 260 27 292 4 19 13 94 19 165 10 127
25 220 71 430 37 174 58 245 79 272 11 14 20 32 20 39 0 7 35 84 78 171 77
157 98 187 220 311 28 29 52 56 52 59 0 3 16 21 36 39 l35 34 -45 0 c-47 0
-133 -28 -211 -68 -7 -3 -7 -1 0 6 16 17 172 91 213 102 20 5 93 8 162 7 117
-3 131 -5 225 -40z m180 -95 c-3 -3 -11 0 -18 7 -9 10 -8 11 6 5 10 -3 15 -9
12 -12z m-1865 -5648 c-67 -138 -201 -234 -325 -234 -65 0 -108 17 -162 65
-53 47 -123 143 -123 167 0 7 13 -7 29 -32 32 -51 74 -92 142 -139 41 -29 54
-32 120 -34 90 -1 138 19 219 92 55 48 119 151 121 195 1 18 2 18 6 3 3 -11
-9 -48 -27 -83z m6938 -999 c-3 -3 -9 2 -12 12 -6 14 -5 15 5 6 7 -7 10 -15 7
-18z m26 -70 c5 -22 4 -26 -4 -15 -5 8 -10 24 -10 34 0 26 6 18 14 -19z m29
-92 c9 -29 12 -53 8 -53 -5 0 -11 12 -14 28 -3 15 -9 41 -13 57 -11 48 2 25
19 -32z m-3702 -140 c13 -16 12 -17 -3 -4 -10 7 -18 15 -18 17 0 8 8 3 21 -13z
m69 -68 c13 -14 21 -25 18 -25 -2 0 -15 11 -28 25 -13 14 -21 25 -18 25 2 0
15 -11 28 -25z m85 -63 c-3 -3 -11 0 -18 7 -9 10 -8 11 6 5 10 -3 15 -9 12
-12z m46 -20 c-7 -2 -18 1 -23 6 -8 8 -4 9 13 5 13 -4 18 -8 10 -11z m92 -19
c-7 -2 -19 -2 -25 0 -7 3 -2 5 12 5 14 0 19 -2 13 -5z m160 0 c-7 -2 -21 -2
-30 0 -10 3 -4 5 12 5 17 0 24 -2 18 -5z m3270 -28 c-7 -21 -13 -19 -13 6 0
11 4 18 10 14 5 -3 7 -12 3 -20z m-10 -55 c-3 -12 -8 -19 -11 -16 -5 6 5 36
12 36 2 0 2 -9 -1 -20z m-7546 -4696 c-5 -5 -57 13 -57 20 0 3 14 0 31 -6 16
-6 28 -12 26 -14z m-270 -270 c-3 -3 -12 -4 -19 -1 -8 3 -5 6 6 6 11 1 17 -2
13 -5z m2390 0 c-3 -3 -12 -4 -19 -1 -8 3 -5 6 6 6 11 1 17 -2 13 -5z m-2300
-20 c-3 -3 -12 -4 -19 -1 -8 3 -5 6 6 6 11 1 17 -2 13 -5z m2216 -1 c-7 -2
-21 -2 -30 0 -10 3 -4 5 12 5 17 0 24 -2 18 -5z m-2110 -20 c-7 -2 -21 -2 -30
0 -10 3 -4 5 12 5 17 0 24 -2 18 -5z m2005 0 c-10 -2 -26 -2 -35 0 -10 3 -2 5
17 5 19 0 27 -2 18 -5z m-61 -9 c-3 -3 -12 -4 -19 -1 -8 3 -5 6 6 6 11 1 17
-2 13 -5z m-1812 -14 c13 -6 2 -7 -30 -3 -27 3 -52 7 -54 9 -9 8 65 2 84 -6z
m1774 6 c-2 -2 -29 -6 -59 -9 -36 -4 -46 -3 -30 3 25 8 97 13 89 6z m-1629
-25 c42 -8 42 -9 10 -9 -19 0 -55 3 -80 7 -42 8 -42 9 -10 9 19 0 55 -3 80 -7z
m1465 -1 c-27 -5 -66 -8 -85 -8 l-35 1 40 7 c22 4 60 7 85 7 l45 0 -50 -7z
m-1265 -20 l55 -7 -50 -1 c-27 0 -75 3 -105 8 l-55 7 50 1 c28 0 75 -3 105 -8z
m1085 0 c-33 -4 -85 -8 -115 -7 l-55 0 50 7 c28 4 79 7 115 7 l65 0 -60 -7z
m-398 -23 c-144 -6 -303 -6 -430 0 -191 9 -179 10 228 10 425 0 427 0 202 -10z"/>
<path d="M7037 11023 c-19 -30 -43 -127 -42 -168 0 -82 19 -68 27 20 3 44 11
97 16 118 9 35 9 46 -1 30z"/>
<path d="M6951 10484 c0 -11 3 -14 6 -6 3 7 2 16 -1 19 -3 4 -6 -2 -5 -13z"/>
<path d="M6930 10416 c-9 -24 -18 -107 -24 -224 -2 -34 -9 -69 -15 -76 -19
-22 -52 -230 -57 -351 -3 -71 -10 -115 -18 -125 -20 -23 -41 -180 -29 -216
l11 -29 12 30 c6 17 16 71 22 120 5 50 16 113 23 140 8 28 21 102 30 166 8 64
21 134 28 155 8 22 13 53 12 69 -1 17 2 44 7 60 17 57 19 70 25 188 4 86 3
117 -6 117 -6 0 -16 -11 -21 -24z"/>
<path d="M6781 9368 c-9 -25 -17 -76 -31 -218 -12 -122 -19 -168 -31 -206 -5
-17 -11 -44 -13 -60 -2 -16 -9 -49 -16 -72 -6 -24 -15 -85 -20 -135 -5 -51
-11 -103 -13 -117 -15 -76 -17 -140 -6 -158 10 -15 15 -17 24 -8 11 11 17 48
35 236 9 86 29 222 49 321 5 30 11 92 12 139 1 47 8 97 15 111 16 32 26 176
13 184 -5 4 -13 -4 -18 -17z"/>
<path d="M2150 8432 c0 -18 11 -54 25 -80 14 -26 25 -63 25 -83 0 -21 8 -47
19 -61 13 -15 21 -45 24 -79 2 -30 11 -68 20 -86 9 -18 17 -50 17 -73 0 -22 9
-58 20 -79 12 -24 18 -52 15 -71 -2 -20 5 -53 21 -87 14 -33 24 -74 24 -103 0
-25 3 -49 6 -53 3 -3 19 -42 34 -86 16 -44 32 -86 36 -93 13 -19 43 -139 43
-171 1 -15 10 -47 21 -69 11 -23 20 -56 20 -74 0 -18 11 -51 24 -75 14 -24 23
-46 20 -51 -10 -16 16 -120 36 -145 11 -14 20 -40 20 -58 0 -17 7 -54 15 -81
8 -27 15 -62 15 -77 0 -16 14 -68 30 -117 17 -49 30 -103 30 -120 0 -17 7 -45
16 -61 17 -35 53 -164 54 -194 0 -11 8 -36 18 -55 11 -19 22 -56 25 -82 4 -26
18 -66 32 -88 14 -22 23 -40 19 -40 -3 0 4 -13 16 -30 12 -16 26 -30 31 -30
11 0 12 57 1 64 -5 3 -16 40 -26 83 -9 43 -23 98 -31 123 -9 25 -15 62 -15 82
0 24 -14 65 -40 115 -24 46 -49 113 -60 164 -10 47 -26 103 -34 124 -9 20 -16
54 -16 75 0 27 -10 53 -36 90 -28 41 -35 59 -31 84 3 21 -4 47 -20 78 -14 26
-22 52 -18 58 3 5 2 10 -4 10 -6 0 -8 12 -5 30 4 16 2 36 -3 42 -5 7 -11 38
-12 68 -2 30 -11 74 -22 97 -10 23 -19 53 -19 66 0 14 -14 58 -31 98 -17 41
-33 93 -34 116 -1 23 -13 62 -25 87 -12 25 -25 69 -30 98 -4 29 -13 79 -20
111 -6 33 -9 61 -6 65 3 3 -3 19 -14 36 -11 19 -22 61 -26 101 -5 48 -15 81
-31 107 -14 20 -31 62 -39 95 -8 32 -19 75 -25 96 -6 26 -6 43 3 56 9 16 8 27
-7 60 -10 23 -22 41 -27 41 -4 0 -22 15 -38 33 l-29 32 -1 -33z"/>
<path d="M6647 8349 c8 -8 6 -19 -4 -40 -8 -16 -12 -37 -9 -46 10 -24 24 -4
26 37 3 52 1 60 -12 60 -9 0 -9 -3 -1 -11z"/>
<path d="M6621 8118 c0 -28 2 -30 9 -13 12 28 12 45 0 45 -5 0 -10 -15 -9 -32z"/>
<path d="M6596 7999 c-3 -17 -6 -47 -6 -65 0 -26 4 -32 15 -28 11 5 15 22 15
65 0 63 -14 79 -24 28z"/>
<path d="M6573 7848 c-1 -20 -13 -79 -23 -118 -6 -19 -10 -52 -10 -73 0 -21
-5 -48 -11 -59 -6 -12 -13 -58 -15 -102 -2 -45 -8 -97 -14 -116 -13 -44 -13
-97 -1 -105 17 -10 34 36 28 74 -3 22 1 44 8 54 14 20 23 82 30 200 2 42 7 83
12 90 18 27 33 84 33 125 0 34 -3 42 -18 42 -10 0 -19 -6 -19 -12z"/>
<path d="M6466 7164 c-9 -60 -11 -122 -4 -129 12 -12 31 131 20 150 -8 16 -11
12 -16 -21z"/>
</g>
</svg>
