<?xml version="1.0" encoding="utf-8"?>
<!-- Generator: Adobe Illustrator 16.0.0, SVG Export Plug-In . SVG Version: 6.00 Build 0)  -->
<!DOCTYPE svg PUBLIC "-//W3C//DTD SVG 1.0//EN" "http://www.w3.org/TR/2001/REC-SVG-20010904/DTD/svg10.dtd">
<svg version="1.0" id="Layer_1" xmlns="http://www.w3.org/2000/svg" xmlns:xlink="http://www.w3.org/1999/xlink" x="0px" y="0px"
	 width="368.511px" height="357.041px" viewBox="0 0 368.511 357.041" enable-background="new 0 0 368.511 357.041"
	 xml:space="preserve">
<g>
	<path fill-rule="evenodd" clip-rule="evenodd" fill="#112240" d="M348.864,183.436c0,71.378-49.476,122.997-108.859,155.061
		c-5.954,3.215-4.939-38.534-3.121-42.951c0.104-0.254,21.021-30.517,22.334-53c3-51.334,30-132.334,7.303-133.459
		c-5.987-0.297-35.134,73.036-32.97,67.125c13.667-37.333,28.834-63.333,29.5-79c0.883-20.772-17.742-18.393-21.5-17.5
		c-4.533,1.077-29.636,73.875-35,69.5c-10.531-8.59-9.359-77.695-22.482-87c-6.194-4.392-35.23,14.719-42.018,14.5
		c-15.5-0.5,5.5,140.5-11.833,145.833c-6.363,1.958-47.37-29.968-54.667-29.666c-8.254,0.342-18,7.666-19.667,12.666
		c-3.504,10.512,87.042,94.518,84.667,94.167c-5.889-0.869,7.577,44.696,1.908,43.222C71.59,324.498,19.272,260.077,19.272,183.436
		c0-91.014,73.782-164.796,164.796-164.796C275.083,18.64,348.864,92.422,348.864,183.436z"/>
	<g>
		<path fill-rule="evenodd" clip-rule="evenodd" fill="#EA9928" d="M230.982,345.549c-0.137-1.533-0.32-2.756-0.343-3.982
			c-0.215-11.605-0.278-23.214-0.643-34.814c-0.229-7.282,1.785-13.574,6.087-19.512c4.734-6.535,9.77-13.146,12.873-20.486
			c3.047-7.205,4.373-15.291,5.457-23.129c1.02-7.374,0.854-14.926,1.004-22.403c0.27-13.285,2.726-26.247,5.559-39.154
			c3.626-16.521,7.379-33.013,10.999-49.534c0.661-3.017,1.321-6.115,1.327-9.177c0.008-4.93-4.237-8.922-9.054-8.403
			c-1.555,0.167-3.646,1.839-4.25,3.327c-6.502,16.012-12.756,32.125-19.078,48.209c-0.728,1.85-1.464,3.697-2.192,5.546
			c-1.764,4.486-4.927,8.927-0.111,13.536c0.563,0.539,0.426,1.811,0.48,2.084c-4.875-3.147-10.002-6.457-15.064-9.727
			c-0.342,0.39-0.175,0.083-0.077,0.104c5.937,1.261,7.892-2.11,9.78-7.118c7.335-19.436,15.371-38.607,22.713-58.042
			c2.308-6.11,4.063-12.626,2.738-19.406c-1.152-5.896-8.963-11.219-14.787-9.944c-3.229,0.706-5.533,2.525-6.708,5.83
			c-5.867,16.51-11.669,33.046-17.821,49.45c-3.928,10.468-8.345,20.757-12.759,31.034c-0.601,1.4-3.138,3.432-3.616,3.155
			c-1.625-0.938-3.605-2.63-3.891-4.3c-1.619-9.457-2.786-18.992-4.106-28.5c-1.388-9.999-2.799-19.995-4.155-29.997
			c-1.406-10.377-2.726-20.766-4.15-31.14c-0.609-4.432-0.832-9.271-5.895-11.229c-4.565-1.768-12.183-1.546-15.92,3.896
			c-0.811,1.18-1.257,2.99-1.081,4.411c2.448,19.673,5.006,39.333,7.597,58.989c1.449,10.998,2.95,21.99,4.611,32.956
			c0.15,0.996,1.516,1.981,2.535,2.631c1.601,1.021,3.387,1.751,4.688,2.401c-6.584,1.83-13.116,3.644-19.086,5.303
			c0.433-0.609,1.136-2.389,2.444-3.293c4.271-2.954,4.27-6.918,3.623-11.421c-2.305-16.04-4.477-32.1-6.619-48.163
			c-1.384-10.378-2.707-20.765-3.902-31.165c-0.554-4.82-2.419-6.284-7.283-5.149c-9.387,2.191-14.698,8.934-14.216,19.204
			c0.818,17.436,2.112,34.849,3.106,52.278c0.306,5.36,0.393,10.738,0.395,16.108c0.006,13.853,0.093,27.709-0.248,41.554
			c-0.119,4.803-1.165,9.633-2.292,14.329c-0.339,1.414-2.193,3.077-3.673,3.498c-5.935,1.688-11.42-0.287-16.309-3.461
			c-5.957-3.867-11.611-8.202-17.356-12.389c-6.984-5.089-14.198-9.771-22.729-11.81c-7.01-1.674-13.628-0.976-19.298,4.068
			c-3.794,3.376-4.149,5.929-0.398,9.382c3.75,3.451,7.871,6.533,12.022,9.508c13.315,9.539,23.196,22.242,32.639,35.315
			c9.557,13.231,20.633,25.031,32.863,35.769c4.278,3.757,6.58,8.244,6.807,13.933c0.448,11.22,1.033,22.434,1.519,33.651
			c0.101,2.334,0.015,4.676,0.015,7.688c-26.104-5.769-49.482-17.12-70.013-34.01c-34.023-27.989-55.194-63.816-61.569-107.472
			C-0.495,105.93,70.002,24.821,155.855,11.023C252.533-4.513,334.181,60.398,351.799,143.14
			C373.521,245.157,305.542,325.676,230.982,345.549z M205.764,142.416c0.405,0.127,0.811,0.256,1.216,0.384
			c0.795-1.121,1.831-2.143,2.34-3.382c1.502-3.651,2.839-7.373,4.161-11.095c4.932-13.881,9.807-27.783,14.771-41.652
			c0.738-2.061,1.418-4.382,2.842-5.919c11.506-12.416,27.047-6.922,34.617,3.679c3.79,5.308,3.479,11.316,3.139,17.267
			c-0.152,2.674,0.705,3.896,2.937,5.238c2.988,1.798,6.142,3.893,8.138,6.646c4.111,5.673,3.841,12.188,2.047,18.775
			c-1.508,5.54-2.769,11.152-3.989,16.765c-1.88,8.646-3.53,17.343-5.46,25.979c-3.707,16.583-7.654,33.049-7.215,50.313
			c0.224,8.809-1.488,17.667-2.336,26.502c-0.611,6.372-1.444,12.741-4.795,18.343c-4.549,7.607-9.137,15.21-14.146,22.517
			c-2.52,3.676-4.47,7.24-4.382,11.788c0.112,5.741,0.019,11.485,0.108,17.226c0.056,3.585,1.011,4.23,4.381,2.994
			c11.328-4.154,21.519-10.467,31.106-17.587c6.932-5.147,13.144-11.28,19.551-17.112c8.944-8.142,15.986-17.82,22.284-28.086
			c7.187-11.715,12.845-24.116,16.555-37.349c3.524-12.565,5.967-25.327,6.181-38.446c0.21-12.854-0.287-25.593-3.26-38.22
			c-2.445-10.387-5.369-20.51-9.514-30.391c-6.873-16.381-16.406-30.985-28.32-43.969c-9.885-10.771-20.933-20.424-33.796-27.53
			c-9.303-5.139-18.895-9.907-28.756-13.841c-11.329-4.521-23.296-6.681-35.494-8.216c-14.133-1.778-28.14-1.464-41.996,0.65
			c-10.55,1.611-21.019,4.595-31.116,8.135c-15.588,5.464-29.896,13.538-42.779,24.034c-9.653,7.864-18.545,16.395-26.204,26.283
			c-7.408,9.563-13.723,19.764-18.771,30.684c-5.397,11.676-9.766,23.763-11.425,36.646c-1.085,8.425-2.504,16.829-3.096,25.289
			c-0.37,5.29,0.777,10.668,0.791,16.007c0.029,11.7,2.924,22.837,6.057,33.964c4.307,15.301,11.366,29.271,20.102,42.479
			c7.879,11.912,17.563,22.161,28.214,31.608c14.456,12.821,31.381,21.342,49.05,28.591c1.8,0.738,3.909,0.723,6.573,1.176
			c-0.541-8.06-1.009-15.279-1.517-22.495c-0.239-3.396-2.104-5.707-4.563-8.042c-7.546-7.164-15.253-14.251-22.016-22.126
			c-9.156-10.662-17.2-22.276-26.305-32.986c-4.704-5.532-10.607-10.063-16.082-14.918c-4.802-4.258-9.946-8.144-14.59-12.56
			c-3.449-3.28-4.46-10.86-2.108-14.805c4.677-7.844,11.665-12.326,20.814-13.426c8.656-1.041,16.783,1.152,23.939,5.469
			c10.063,6.07,19.467,13.228,29.262,19.754c2.326,1.549,5.088,2.441,7.65,3.637c0.465-0.212,0.93-0.424,1.396-0.636
			c0.235-7.775,0.766-15.556,0.642-23.325c-0.245-15.41-0.862-30.814-1.305-46.222c-0.172-5.966-0.195-11.938-0.455-17.901
			c-0.288-6.6-1.025-13.189-1.094-19.787c-0.073-7.011-0.643-14.269,0.9-20.983c2.164-9.413,8.604-15.667,18.516-17.811
			c3.45-0.746,6.594-1.54,9.012-5.238c4.142-6.332,11.224-8.103,18.474-7.925c5.01,0.123,10.114,0.831,13.82,4.936
			c4.199,4.651,5.887,10.297,6.473,16.401c0.391,4.07,0.874,8.135,1.447,12.185c1.436,10.148,2.977,20.282,4.41,30.431
			c0.642,4.543,1.089,9.113,1.701,13.66C204.837,137.395,205.336,139.9,205.764,142.416z"/>
		
	</g>
</g>
</svg>
